<?xml version="1.0" standalone="no"?>
<!DOCTYPE svg PUBLIC "-//W3C//DTD SVG 20010904//EN"
 "http://www.w3.org/TR/2001/REC-SVG-20010904/DTD/svg10.dtd">
<svg version="1.0" xmlns="http://www.w3.org/2000/svg"
 width="1120.000000pt" height="1120.000000pt" viewBox="0 0 1120.000000 1120.000000"
 preserveAspectRatio="xMidYMid meet">

<g transform="translate(0.000000,1120.000000) scale(0.100000,-0.100000)"
fill="#000000" stroke="none">
<path d="M2319 7387 c-110 -74 -106 -233 8 -288 112 -54 231 12 241 135 8 104
-59 176 -166 176 -34 0 -59 -7 -83 -23z"/>
<path d="M2000 6899 c-263 -23 -487 -187 -605 -443 -137 -295 -47 -671 208
-877 57 -46 133 -91 174 -103 20 -6 22 -3 28 61 41 444 193 763 491 1033 38
35 79 69 91 77 13 9 20 20 16 26 -3 6 -1 7 5 3 13 -8 118 61 115 75 -2 4 4 6
12 3 8 -4 15 -2 15 3 0 15 -122 81 -200 107 -108 36 -219 47 -350 35z"/>
<path d="M3039 6809 c-201 -21 -409 -103 -574 -227 -108 -80 -256 -237 -329
-346 -166 -251 -230 -473 -230 -806 0 -202 17 -314 70 -462 82 -228 252 -439
451 -557 197 -117 480 -161 718 -112 421 87 818 449 948 866 53 170 62 236 61
450 -1 217 -17 326 -71 485 -106 314 -353 573 -638 668 -115 39 -277 55 -406
41z m325 -129 c155 -40 291 -121 391 -235 32 -35 62 -62 68 -58 6 3 7 1 3 -5
-4 -6 9 -33 28 -59 47 -66 88 -152 124 -258 47 -138 63 -227 69 -385 9 -249
-31 -443 -133 -645 -159 -314 -468 -562 -779 -625 -140 -29 -336 -24 -454 10
-302 86 -532 326 -625 653 -57 199 -58 517 -1 727 31 115 115 292 187 397 62
90 186 217 284 292 133 101 342 188 506 211 87 12 244 3 332 -20z"/>
<path d="M2961 6584 c-36 -8 -67 -16 -70 -19 -9 -9 29 -71 86 -140 93 -113
241 -206 392 -247 102 -27 279 -30 370 -5 36 10 67 20 69 22 11 11 -69 125
-133 189 -102 103 -227 170 -373 201 -84 18 -257 17 -341 -1z"/>
<path d="M2688 6476 c-104 -59 -161 -102 -240 -183 -136 -139 -246 -329 -292
-500 -28 -107 -49 -258 -44 -323 l3 -45 74 3 c237 10 493 194 597 429 79 178
86 424 17 607 -10 27 -23 51 -28 53 -6 2 -45 -17 -87 -41z"/>
<path d="M3815 5619 c-208 -19 -416 -141 -535 -314 -128 -187 -163 -459 -87
-692 20 -62 24 -68 47 -65 68 7 220 99 345 208 184 160 322 428 355 686 14
113 13 178 -2 179 -7 0 -20 2 -28 3 -8 1 -51 -1 -95 -5z"/>
<path d="M8932 6344 c-24 -17 -30 -62 -10 -82 7 -7 26 -12 43 -12 38 0 55 16
55 51 0 27 -30 59 -55 59 -6 0 -21 -7 -33 -16z"/>
<path d="M5826 6295 c-129 -49 -195 -175 -161 -308 29 -114 96 -167 220 -175
80 -5 129 7 189 45 l38 25 -27 28 -28 29 -44 -26 c-38 -22 -52 -25 -113 -21
-56 3 -74 8 -95 28 -45 42 -58 77 -53 146 4 71 23 104 78 142 43 29 127 30
188 2 l43 -20 24 26 c29 31 26 38 -28 66 -54 28 -175 34 -231 13z"/>
<path d="M9173 6285 c-28 -12 -33 -19 -33 -49 0 -32 -3 -35 -32 -38 -29 -3
-33 -7 -36 -35 -3 -29 -1 -32 30 -35 l33 -3 2 -120 c4 -150 6 -161 46 -185 36
-22 56 -24 108 -10 35 10 36 12 30 43 -7 29 -10 32 -40 29 -21 -2 -37 2 -42
10 -5 7 -9 61 -9 120 0 105 1 108 24 114 13 3 34 4 47 2 20 -3 24 2 27 29 l3
32 -53 3 -53 3 3 53 c4 58 -1 61 -55 37z"/>
<path d="M6239 6172 c-69 -36 -99 -89 -99 -176 0 -95 43 -153 134 -181 126
-38 248 37 263 162 7 62 -9 113 -50 160 -62 70 -156 83 -248 35z m184 -82 c23
-25 27 -39 27 -86 0 -50 -3 -59 -34 -90 -96 -96 -232 21 -177 153 28 68 132
81 184 23z"/>
<path d="M6748 6181 c-31 -17 -38 -18 -38 -6 0 11 -12 15 -45 15 l-45 0 0
-190 0 -190 45 0 45 0 0 135 c0 131 1 137 25 160 30 31 77 33 105 5 18 -18 20
-33 20 -160 l0 -140 45 0 45 0 0 135 c0 131 1 137 25 160 30 31 77 33 105 5
18 -18 20 -33 20 -161 l0 -140 43 3 42 3 3 95 c2 52 0 124 -3 160 -6 55 -12
69 -40 97 -29 29 -39 33 -88 33 -45 0 -61 -5 -87 -26 l-31 -27 -24 23 c-36 33
-117 38 -167 11z"/>
<path d="M7407 6181 c-29 -15 -37 -16 -37 -5 0 10 -13 14 -45 14 l-45 0 0
-152 c0 -84 3 -170 6 -190 6 -36 8 -38 45 -38 l39 0 0 133 c0 133 0 133 28
160 38 36 83 36 111 1 19 -24 21 -40 21 -160 l0 -134 39 0 39 0 4 136 c3 135
3 136 31 160 34 29 80 31 107 4 18 -18 20 -33 20 -160 l0 -140 45 0 45 0 0
140 c0 155 -9 192 -55 228 -39 31 -120 30 -166 -1 l-34 -23 -34 23 c-42 29
-112 31 -164 4z"/>
<path d="M8565 6181 c-36 -25 -45 -26 -45 -6 0 11 -11 15 -42 15 l-43 0 3
-190 3 -190 44 0 45 0 0 131 0 131 29 29 c38 38 91 40 126 4 24 -23 25 -29 25
-160 l0 -135 45 0 45 0 0 135 c0 148 -8 182 -54 225 -38 34 -137 40 -181 11z"/>
<path d="M8928 6193 c-16 -4 -18 -22 -18 -194 l0 -189 45 0 45 0 0 195 0 195
-27 -1 c-16 -1 -36 -3 -45 -6z"/>
<path d="M7962 6038 c4 -176 11 -196 84 -224 55 -21 104 -14 150 21 l34 26 0
-25 c0 -24 3 -26 45 -26 l45 0 0 190 0 190 -45 0 -45 0 0 -115 c0 -129 -9
-157 -55 -180 -43 -20 -68 -19 -96 4 -23 18 -24 26 -27 155 l-4 136 -45 0 -45
0 4 -152z"/>
<path d="M9360 6181 c0 -5 15 -40 34 -77 18 -38 57 -122 85 -186 50 -113 51
-119 37 -147 -21 -40 -77 -56 -103 -30 -8 8 -14 1 -23 -26 -15 -45 -7 -55 47
-62 49 -6 104 17 129 55 13 19 130 281 211 470 4 10 -6 12 -41 10 l-47 -3 -53
-128 c-30 -71 -56 -130 -58 -133 -3 -2 -31 57 -63 131 l-58 135 -48 0 c-27 0
-49 -4 -49 -9z"/>
<path d="M4514 6071 c-118 -72 -118 -234 0 -291 136 -65 281 43 245 182 -12
51 -34 79 -80 107 -44 27 -122 28 -165 2z"/>
<path d="M5780 5655 c-90 -28 -137 -106 -107 -178 22 -52 59 -74 164 -98 97
-22 133 -43 133 -76 -1 -43 -39 -63 -119 -63 -36 0 -82 8 -113 20 -54 20 -54
21 -79 -23 -14 -25 -6 -33 57 -56 74 -28 201 -29 261 -1 51 23 83 70 83 123 0
77 -49 122 -160 147 -133 30 -171 69 -120 120 32 32 115 27 212 -14 12 -6 21
1 33 24 15 29 15 34 2 47 -18 18 -117 43 -167 42 -19 0 -55 -7 -80 -14z"/>
<path d="M8510 5643 c-29 -15 -36 -24 -38 -55 -3 -33 -6 -37 -35 -40 -28 -3
-32 -7 -35 -35 -3 -28 0 -32 25 -35 l28 -3 5 -125 c3 -77 10 -134 18 -148 20
-35 75 -54 128 -46 51 7 54 10 47 47 -5 24 -10 27 -42 27 -56 0 -61 11 -61
131 0 118 1 119 66 119 31 0 34 3 34 29 0 28 -2 30 -47 33 l-48 3 -5 58 -5 57
-35 -17z"/>
<path d="M7287 5549 c-20 -5 -49 -16 -62 -25 -23 -15 -25 -15 -25 0 0 12 -10
16 -45 16 l-45 0 0 -265 0 -265 45 0 45 0 0 90 c0 50 1 90 3 90 1 0 20 -9 42
-20 76 -39 165 -21 222 43 37 42 47 84 41 167 -3 48 -10 67 -35 97 -52 64
-113 88 -186 72z m82 -83 c36 -19 51 -55 51 -121 0 -91 -64 -142 -145 -115
-54 18 -75 52 -75 122 0 33 5 68 10 78 24 45 105 63 159 36z"/>
<path d="M8256 5550 c-16 -5 -42 -21 -57 -36 l-29 -28 0 27 c0 25 -3 27 -45
27 l-45 0 0 -190 0 -190 44 0 43 0 -1 126 -1 126 34 30 c34 30 65 34 127 13
17 -5 22 0 34 35 9 27 10 44 3 51 -14 14 -74 20 -107 9z"/>
<path d="M6173 5542 l-43 -3 0 -102 c0 -150 13 -215 50 -252 28 -27 36 -30 94
-30 51 0 71 5 95 23 30 22 31 22 31 2 0 -17 6 -20 45 -20 l45 0 -2 193 -3 192
-40 0 -40 0 -3 -132 -3 -132 -30 -25 c-45 -38 -104 -35 -141 7 0 1 -4 65 -7
142 l-6 140 -42 -3z"/>
<path d="M6733 5531 c-27 -17 -33 -18 -33 -6 0 11 -12 15 -45 15 l-45 0 0
-265 0 -265 23 0 c64 1 67 5 67 101 l0 90 28 -21 c67 -50 180 -34 237 33 60
70 70 149 31 233 -34 73 -74 98 -161 102 -57 2 -76 -1 -102 -17z m163 -85 c29
-29 34 -41 34 -80 0 -84 -43 -136 -113 -136 -80 0 -117 41 -117 131 0 45 4 55
34 85 29 29 41 34 81 34 40 0 52 -5 81 -34z"/>
<path d="M7689 5530 c-82 -43 -120 -126 -101 -219 22 -104 85 -155 192 -155
82 0 139 28 177 86 24 36 28 52 28 112 0 86 -25 133 -89 171 -55 32 -152 34
-207 5z m178 -83 c77 -76 25 -217 -81 -217 -50 0 -83 21 -102 66 -28 67 -5
152 49 174 38 17 107 5 134 -23z"/>
<path d="M4256 5508 c-2 -13 -9 -64 -15 -114 -53 -443 -332 -843 -743 -1065
-43 -23 -78 -45 -78 -49 0 -13 124 -89 186 -114 108 -44 203 -59 337 -54 208
8 355 73 508 228 71 71 94 103 133 181 25 51 55 130 66 173 23 89 27 236 9
332 -34 186 -172 388 -324 475 -60 35 -73 36 -79 7z"/>
<path d="M8440 4770 l0 -260 45 0 45 0 0 40 c0 30 7 48 31 75 l31 35 55 -75
54 -75 55 0 c30 0 54 3 54 6 0 3 -31 45 -68 93 -38 47 -72 92 -76 99 -5 8 21
42 75 97 l83 85 -55 0 -54 0 -92 -92 -93 -93 0 163 0 162 -45 0 -45 0 0 -260z"/>
<path d="M5652 4768 l3 -253 42 -3 43 -3 2 185 3 186 76 -102 c41 -57 101
-140 133 -185 57 -83 58 -83 102 -83 l44 0 0 250 0 250 -45 0 -45 0 -1 -172
c0 -166 -1 -172 -17 -148 -59 85 -227 307 -240 318 -9 6 -35 12 -59 12 l-43 0
2 -252z"/>
<path d="M6733 4993 c-21 -11 -33 -24 -33 -37 0 -50 -11 -65 -49 -68 -33 -3
-36 -6 -39 -35 -3 -32 -2 -33 37 -33 l39 0 4 -130 c3 -126 4 -130 31 -157 24
-24 35 -28 87 -28 32 1 62 4 66 7 3 4 2 19 -3 35 -8 22 -15 27 -35 25 -48 -6
-58 18 -58 144 l0 114 55 0 c54 0 55 0 55 30 0 30 -1 30 -55 30 l-55 0 0 60
c0 33 -3 60 -7 59 -5 0 -23 -8 -40 -16z"/>
<path d="M6310 4884 c-76 -33 -120 -102 -120 -186 0 -58 25 -122 58 -151 50
-45 145 -58 225 -31 63 21 72 35 46 68 -19 25 -22 25 -49 11 -16 -8 -53 -15
-83 -15 -45 0 -59 4 -81 26 -14 15 -26 35 -26 45 0 17 12 19 143 21 l142 3 -2
30 c-6 94 -37 144 -108 176 -48 22 -98 23 -145 3z m127 -69 c11 -8 26 -28 31
-45 l11 -30 -100 0 c-54 0 -99 3 -99 8 1 18 29 56 51 68 32 18 80 17 106 -1z"/>
<path d="M7727 4890 c-16 -5 -44 -21 -64 -36 -106 -81 -92 -274 24 -329 84
-40 175 -29 240 28 45 39 63 82 63 147 0 65 -18 108 -63 147 -54 48 -130 64
-200 43z m121 -80 c68 -41 79 -145 22 -202 -24 -23 -37 -28 -77 -28 -73 1
-113 43 -113 120 0 59 17 91 60 112 45 23 67 23 108 -2z"/>
<path d="M8240 4889 c-14 -6 -35 -20 -47 -31 l-23 -21 0 26 c0 25 -3 27 -45
27 l-45 0 0 -190 0 -190 45 0 45 0 0 121 c0 120 0 121 29 150 34 33 43 35 99
15 l41 -15 17 46 c17 44 17 46 -1 59 -22 16 -79 17 -115 3z"/>
<path d="M6930 4883 c1 -5 33 -89 73 -188 l72 -180 45 -3 45 -3 39 123 38 123
35 -110 c19 -60 36 -116 38 -122 3 -8 23 -13 53 -13 l49 0 43 123 c24 67 56
151 72 185 15 35 28 66 28 68 0 2 -22 4 -50 4 l-49 0 -43 -135 c-24 -74 -45
-135 -48 -135 -3 0 -24 60 -46 133 l-40 132 -37 3 c-44 4 -45 2 -91 -149 -30
-100 -35 -111 -44 -89 -5 14 -26 73 -47 133 l-38 107 -48 0 c-27 0 -49 -3 -49
-7z"/>
<path d="M3045 3911 c-106 -26 -157 -149 -102 -245 74 -131 290 -90 313 59 17
118 -93 215 -211 186z"/>
</g>
</svg>
